<svg xmlns="http://www.w3.org/2000/svg" width="24.504" height="15.5"><path d="M14.057 15.395c.141.07.294.105.447.105.212 0 .423-.068.6-.199l9.001-6.75c.251-.188.399-.484.399-.8 0-.314-.147-.61-.399-.8l-9.001-6.751c-.303-.228-.709-.264-1.047-.095-.34.169-.553.517-.553.895v3.502l-12.504-.002c-.266 0-.521.105-.708.293s-.293.443-.292.708l.004 4.5c0 .552.448.999 1 .999h12.5v3.5c0 .379.213.725.553.895zm-12.054-6.395l-.003-2.5 12.504.001c.266 0 .52-.105.707-.293s.293-.442.293-.707v-2.501l6.334 4.751-6.334 4.749v-2.5c0-.265-.105-.52-.293-.707s-.441-.293-.707-.293h-12.501z" fill="#FCF9C4"/></svg>