<svg xmlns="http://www.w3.org/2000/svg" width="27" height="24"><path fill="#FCF9C4" d="M13.451 13.211c1.146 0 2.073-.78 2.073-1.678s-.928-1.625-2.073-1.625-2.071.728-2.071 1.625c-.001.898.927 1.678 2.071 1.678zm-3.308-1.855c-.248 0-.449.2-.449.445 0 .246.201.445.449.445s.45-.199.45-.445c0-.244-.202-.445-.45-.445zm.834-1.674c-.256 0-.463.199-.463.446 0 .243.207.443.463.443.255 0 .462-.199.462-.443-.001-.247-.209-.446-.462-.446zm6.278-1.571l.052-.703c0-1.701-1.719-1.676-1.719-1.676h-4.229c-1.718 0-1.642 1.545-1.642 1.545v.872c-1.368.496-2.719 1.308-3.406 2.637 0 0-1.723 5.987-1.692 5.464v2.879s-.141 1.678 1.692 1.678h14.309s1.763-.07 1.763-1.678v-2.738l-1.833-5.587c-.939-1.374-2.154-2.198-3.295-2.693zm-3.722 6.811c-2.627 0-4.757-1.516-4.757-3.385 0-1.871 2.13-3.388 4.757-3.388 2.63 0 4.759 1.517 4.759 3.388 0 1.869-2.129 3.385-4.759 3.385zm-.852-5.161c.247 0 .449-.205.449-.458 0-.254-.202-.459-.449-.459-.248 0-.449.205-.449.459-.001.253.201.458.449.458zm1.665-.027c.233 0 .423-.193.423-.432 0-.24-.189-.433-.423-.433s-.423.193-.423.433c0 .239.189.432.423.432zm-2.565 3.487c-.248 0-.449.199-.449.445s.201.445.449.445.45-.199.45-.445c0-.244-.202-.445-.45-.445zm4.243-3.514c-.241 0-.437.193-.437.433s.196.432.437.432.437-.192.437-.432-.195-.433-.437-.433zm-2.498 4.109c-.232 0-.423.189-.423.42 0 .232.19.418.423.418.233 0 .423-.186.423-.418 0-.23-.189-.42-.423-.42zm3.357-2.432c-.234 0-.422.199-.422.445s.188.445.422.445.424-.2.424-.445c0-.246-.19-.445-.424-.445zm-1.692 1.837c-.234 0-.423.199-.423.445s.188.445.423.445c.233 0 .424-.199.424-.445 0-.244-.19-.445-.424-.445zm9.756-7.506l-1.76-.937s-2.393-1.585-9.265-1.585h-1.058c-5.418 0-9.053 1.585-9.053 1.585l-1.76.937c-2.166 1.119-1.035 3.002-1.035 3.002l1.031 2.056 6.014-3.019s-.541-.929-.717-1.357c-.191-.347-.056-.272.076-.35 0 0 2.802-1.179 5.445-1.179h1.269s3.854-.005 5.474 1.36c.08.068.121.056.131.048l-.092.169c-.277.675-.709 1.309-.709 1.309l6.014 3.019 1.031-2.056c-.001 0 1.13-1.883-1.036-3.002z"/></svg>