<svg version="1" xmlns="http://www.w3.org/2000/svg" width="90" height="90"><path fill="#EE352A" d="M7.61 81.83c.054.117.122.232.22.332.107.107.231.188.364.24.132.055.274.084.417.084.155 0 .308-.041.454-.107l.039-.01 15.808-7.902c.106-.053.203-.123.286-.207 1.65-1.65 2.249-3.953 1.812-6.082.442.092.896.139 1.359.139 1.466 0 2.856-.475 4.008-1.342.58.332 1.232.523 1.919.523 1.042 0 2.021-.404 2.756-1.141.736-.736 1.143-1.715 1.143-2.756 0-.66-.18-1.287-.488-1.852l42.813-42.813c1.266-1.265 1.961-2.945 1.961-4.733 0-1.786-.695-3.467-1.961-4.732-1.264-1.263-2.943-1.958-4.73-1.958s-3.467.695-4.732 1.958l-42.824 42.826c-1.471-.763-3.396-.557-4.594.645-.737.736-1.143 1.713-1.143 2.754 0 .695.196 1.355.535 1.941-1.168 1.562-1.581 3.508-1.207 5.338-.442-.092-.897-.139-1.358-.139-1.788 0-3.468.695-4.732 1.959-.084.084-.154.18-.207.287l-7.903 15.807-.016.049-.037.119-.051.262v.131l.052.264.037.116zm12.858-16.787c1.198 0 2.325.465 3.172 1.312 1.707 1.709 1.748 4.465.117 6.223l-9.563 4.781 7.052-7.053c.431-.43.431-1.127 0-1.561-.43-.43-1.128-.43-1.559 0l-7.052 7.051 4.781-9.561c.834-.768 1.911-1.192 3.052-1.192zm7.121-10.543l7.904 7.904c.319.318.496.744.496 1.193 0 .453-.177.877-.496 1.199-.638.637-1.756.637-2.394 0l-7.902-7.906c-.32-.32-.495-.744-.495-1.195s.175-.875.498-1.197c.318-.318.743-.496 1.194-.496s.876.18 1.195.498zm48.201-44.783c1.199 0 2.324.467 3.172 1.312.848.848 1.314 1.974 1.314 3.172 0 1.199-.469 2.326-1.314 3.173l-2.121 2.12-6.344-6.345 2.121-2.12c.846-.845 1.973-1.312 3.172-1.312zm-42.692 47.176l-3.169-3.17 39.01-39.015 6.344 6.345-39.01 39.011-3.175-3.171zm-8.581 2.435l6.15 6.152c-1.689 1.01-4.039.744-5.468-.684-1.48-1.48-1.708-3.745-.682-5.468z"/><path fill="#EE352A" d="M83.728 80.83c0-.15-.033-.301-.098-.443-.65-1.416-6.422-13.904-8.734-16.105l-31.702-30.239.055-.051c.225-.216.338-.498.338-.781 0-.281-.113-.563-.338-.779l-14.547-13.873-6.575-6.27c.314-.067.634-.11.964-.11 1.17 0 2.267.436 3.093 1.222l10.877 10.374 3.909 3.727c.452.431 1.184.431 1.635 0 .226-.215.338-.498.338-.779 0-.282-.113-.564-.338-.779l-14.786-14.103c-1.262-1.205-2.941-1.868-4.728-1.868-.976 0-1.911.215-2.773.591l-.257-.248c-3.15-3-8.273-3-11.422 0-1.526 1.457-2.367 3.392-2.367 5.448 0 2.056.841 3.991 2.367 5.446l23.187 22.116c.217.207.511.322.817.322.306 0 .601-.115.817-.322l.055-.051 31.703 30.236c2.309 2.203 15.404 7.709 16.891 8.328.436.184.943.092 1.279-.229.222-.21.34-.493.34-.78zm-75.144-65.065c0-1.468.601-2.848 1.689-3.887 1.691-1.613 4.177-2.01 6.263-1.198.667.26 1.29.648 1.836 1.156l.054.042.769.732.058.057.759.723 20.785 19.822-.055.053-.817.779-6.41 6.113-.816.779-.054.052-22.372-21.337c-.585-.559-1.016-1.221-1.301-1.938-.244-.615-.388-1.271-.388-1.948zm32.974 19.838l29.13 27.782-6.41 6.113-29.13-27.783 6.41-6.112zm30.765 29.34l.939.896c1.287 1.229 4.549 7.604 7.023 12.812-5.461-2.361-12.146-5.469-13.436-6.699l-.938-.895 6.412-6.114z"/></svg>