<svg xmlns="http://www.w3.org/2000/svg" width="27" height="24"><path fill="#FCF9C4" d="M16.979 8.63l-.63 3.611c-.049.243-.072.485-.072.68 0 .946.411 1.527 1.333 1.527 1.576 0 2.886-1.867 2.886-4.267 0-3.322-2.618-5.383-6.305-5.383-4.389 0-7.637 3.007-7.637 7.734 0 4.17 2.569 6.667 7.007 6.667 2.207 0 4-.533 5.94-1.431l.437 1.236c-1.794.946-4.389 1.504-6.45 1.504-5.406 0-8.485-3.346-8.485-7.928 0-5.455 3.952-9.092 9.262-9.092 4.752 0 7.734 2.934 7.734 6.643 0 3.079-1.892 5.528-4.533 5.528-1.625 0-2.57-1.043-2.619-2.28-.679 1.262-1.722 2.135-2.86 2.135-1.407 0-1.964-1.236-1.964-2.619 0-2.521 1.454-4.921 4.315-4.921.943.002 1.938.267 2.641.656zm-5.334 4.219c0 .728.219 1.334.801 1.334.848 0 1.721-1.236 2.326-2.449l.413-2.304c-.267-.072-.631-.121-.945-.121-1.747 0-2.595 1.867-2.595 3.54z"/></svg>