<svg version="1" xmlns="http://www.w3.org/2000/svg" width="90" height="90"><path fill="#EF3829" d="M23.044 49.324c-.377.006-.741.162-1.006.434l-6.968 7.189c-.345.354-.479.863-.356 1.346.119.479.48.861.952 1.008l12.013 3.131 3.497 11.906c.164.471.558.818 1.042.926.111.025.218.033.328.031.377-.004.738-.154 1.006-.438l6.967-7.188c.264-.271.408-.635.404-1.01l.896-7.518 4.563-4.705.013.01 3.002-3.104 3.848 8.605c.193.434.588.74 1.055.822.469.084.947-.068 1.275-.412l4.48-4.619c.301-.311.371-.715.391-1.178l4.334-19.084 13.453-13.897c1.463-1.506 2.252-3.495 2.219-5.596s-.883-4.059-2.393-5.526c-1.506-1.457-3.493-2.249-5.594-2.215-2.104.037-4.064.884-5.527 2.391l-13.458 13.883-18.958 4.919c-.49.069-.86.117-1.163.429l-4.479 4.619c-.329.342-.471.821-.375 1.288.097.458.421.849.857 1.03l8.732 3.584-7.573 7.811-7.477 1.128zm34.977 4.901l-3.123 3.254-3.597-8.049 10.284-10.646-3.564 15.441zm-26.426-19.174l3.188-3.268 15.613-4.047-10.452 10.759-8.349-3.444zm.198 15.276l5.474-5.646.015.01 26.276-27.22-.016-.01 4.93-5.083c2.045-2.115 5.668-2.172 7.781-.123 1.059 1.028 1.648 2.402 1.672 3.869.023 1.468-.525 2.862-1.549 3.916l-12.724 13.205-.039.062-13.443 13.913-.068.044-10.403 10.728c-.289.299-.45.701-.443 1.119l-.848 7.053-5.344 5.51-3.053-10.57c-.165-.469-.541-.83-1.009-.977l-10.947-2.822 5.335-5.508 7.299-.99c.417-.007.813-.18 1.104-.48z"/><path fill="#EF3829" d="M23.822 66.404c-2.641-2.557-6.875-2.492-9.434.146-2.176 2.244-4.46 11.104-4.894 12.859-.123.494.026 1.014.394 1.371.366.354.889.486 1.382.346 1.739-.486 10.526-3.043 12.699-5.287 2.561-2.642 2.496-6.872-.147-9.435zm-11.592 11.991c1.172-4.15 2.8-8.922 3.883-10.039 1.609-1.666 4.279-1.707 5.939-.096 1.666 1.615 1.71 4.283.096 5.943-1.081 1.117-5.804 2.899-9.918 4.192z"/></svg>