<svg version="1" xmlns="http://www.w3.org/2000/svg" width="90" height="90"><path fill="#EE352A" d="M44.984 3.595c-14.89 0-27.002 12.112-27.002 27 0 10.05 5.476 19.11 14.341 23.823v19.193c0 6.979 5.678 12.662 12.661 12.662 6.979 0 12.661-5.684 12.661-12.662v-19.195c8.863-4.712 14.338-13.772 14.338-23.822-.001-14.887-12.112-26.999-26.999-26.999zm-10.281 53.997h20.562v3.834h-20.562v-3.834zm0 6.217h20.562v3.83h-20.562v-3.83zm0 9.802v-3.591h20.562v3.592l-.012.242h-20.54l-.01-.243zm10.281 10.282c-4.762 0-8.768-3.26-9.932-7.662h19.862c-1.164 4.402-5.168 7.662-9.93 7.662zm10.94-31.268c-.402.199-.66.613-.66 1.064v1.525h-9.092v-14.83h10.281c3.818 0 6.926-3.106 6.926-6.924s-3.107-6.925-6.926-6.925c-3.816 0-6.926 3.107-6.926 6.925 0 1.74.65 3.327 1.715 4.545h-12.522c1.064-1.219 1.716-2.806 1.716-4.545 0-3.818-3.106-6.925-6.923-6.925-3.819 0-6.926 3.107-6.926 6.925s3.107 6.924 6.926 6.924h10.279v14.83h-9.089v-1.525c0-.451-.257-.865-.66-1.064-8.438-4.2-13.681-12.642-13.681-22.031 0-13.575 11.046-24.62 24.623-24.62 13.574 0 24.619 11.045 24.619 24.62-.002 9.389-5.243 17.831-13.68 22.031zm-4.016-19.163c0-2.506 2.039-4.545 4.547-4.545 2.506 0 4.545 2.04 4.545 4.545s-2.039 4.545-4.545 4.545c-2.508.001-4.547-2.039-4.547-4.545zm-18.395 4.546c-2.507 0-4.546-2.04-4.546-4.545 0-2.506 2.039-4.545 4.546-4.545 2.506 0 4.543 2.04 4.543 4.545s-2.037 4.545-4.543 4.545z"/></svg>