<svg version="1" xmlns="http://www.w3.org/2000/svg" width="90" height="90"><g fill="#EE352A"><path d="M2.607 12.742v47.812c0 3.922 3.189 7.109 7.107 7.109h27.786v7.752h-7.431c-2.315 0-4.199 1.883-4.199 4.203 0 2.314 1.884 4.199 4.199 4.199h29.08c2.312 0 4.197-1.885 4.197-4.199 0-2.32-1.885-4.203-4.197-4.203h-7.434v-7.752h27.783c3.92 0 7.107-3.188 7.107-7.109v-47.812c0-3.92-3.188-7.108-7.107-7.108h-69.784c-3.918 0-7.107 3.188-7.107 7.108zm37.414 54.924h3.355v7.752h-3.355v-7.752zm19.362 10.305c.91 0 1.646.736 1.646 1.648 0 .908-.74 1.645-1.646 1.645h-29.508c-.908 0-1.647-.738-1.647-1.645 0-.914.74-1.648 1.647-1.648h29.508zm-10.127-2.555h-3.482v-7.752h3.482v7.752zm34.885-62.746v47.955c0 2.502-2.033 4.539-4.535 4.539h-69.996c-2.501 0-4.537-2.037-4.537-4.539v-47.955c0-2.503 2.035-4.538 4.537-4.538h69.994c2.503.001 4.537 2.035 4.537 4.538zM8.422 12.742v40.707c0 .715.578 1.291 1.292 1.291h69.784c.717 0 1.293-.576 1.293-1.291v-40.707c0-.714-.576-1.293-1.293-1.293h-69.784c-.714 0-1.292.578-1.292 1.293zm2.416 1.196h67.539v38.314h-67.539v-38.314z"/></g></svg>