<svg xmlns="http://www.w3.org/2000/svg" width="27" height="24"><path fill="#FCF9C4" d="M1.323 16.569s3.35 1.329 4.742 1.329c0 0 2.653.705 4.404-1.562 0 0 .43-.62-.152-.921 0 0-5.71-1.758-5.306-2.736 0 0-.025-.552.709-.427 0 0 .826-.714.421-.964 0 0-.633-.552-.126-.602 0 0 1.29.082 1.77.208 0 0 .33-.117.026-.344-.304-.226-.81-.733-.709-.833 0 0 .177-.426.987-.075 0 0 .253-.05.025-.3 0 0-.683-.401-.354-.728 0 0 1.027-.662 3.38 2.171 0 0 .431.577.481.024 0 0 1.706-7.266 4.464-7.742 0 0 .885.176 1.062-.101 0 0 .768-.3 1.021-.05 0 0 .252.377.555.151 0 0 1.089-.426.76.275 0 0-1.121 1.061-1.502 1.085-.379.025-.303.375.027.426 0 0 4.631.404 4.631 3.763 0 0 .266.799 1.127-.029 0 0 1.303-.82 1.631-.86 0 0 .355-.225.305.301 0 0-.936 1.606-1.898 2.056 0 0-.582.727.254.577 0 0 .812-.167 1.191-.392 0 0 .986-.477.531.375 0 0-2.076 1.336-2.533 1.336 0 0-.304.075-.304.351 0 0-.278 8.835-11.87 8.835 0 0-5.803.465-9.6-3.946.002.002-.732-.777-.15-.651z"/></svg>