<svg xmlns="http://www.w3.org/2000/svg" width="155" height="145" viewBox="-8.75 -7.75 155 145" enable-background="new -8.75 -7.75 155 145"><path fill="#FEF9C4" d="M78.976 64.124c1.9 1.136 3.428 2.621 4.58 4.458 1.156 1.844 1.729 3.874 1.729 6.104 0 1.735-.371 3.373-1.122 4.915-.749 1.538-1.771 2.884-3.067 4.034-1.291 1.155-2.811 2.064-4.55 2.731-1.738.666-3.601 1.001-5.585 1.001h-52.441v-6.376h12.747v-31.74h-12.747v-6.374h49.829c1.986 0 3.835.334 5.558 1.003 1.718.667 3.225 1.578 4.519 2.73 1.297 1.155 2.318 2.499 3.069 4.037.747 1.538 1.122 3.176 1.122 4.919 0 1.657-.321 3.215-.971 4.669-.65 1.461-1.537 2.756-2.67 3.889zm-41.398-2.186h30.41c1.09 0 2.127-.159 3.095-.485.97-.324 1.812-.779 2.519-1.367.706-.586 1.276-1.264 1.698-2.036.429-.766.639-1.594.639-2.483 0-.855-.21-1.661-.639-2.43-.423-.767-.994-1.449-1.698-2.035-.707-.585-1.549-1.04-2.519-1.364-.968-.326-2.006-.488-3.095-.488h-30.41v12.688zm33.022 19.056c1.09 0 2.123-.161 3.091-.485.975-.322 1.825-.776 2.552-1.361.729-.583 1.296-1.265 1.7-2.033.402-.771.606-1.579.606-2.429 0-.89-.204-1.72-.606-2.491-.404-.768-.972-1.431-1.7-2.004-.727-.567-1.577-1.022-2.552-1.363-.968-.343-2.001-.52-3.091-.52h-33.022v12.685h33.022v.001z"/><path fill="#FEF9C4" d="M104.933 54.876c0-1.23-1.012-2.247-2.291-2.247h-5.13c-1.285 0-2.297.963-2.297 2.247v.798h-4.701v-1.759c0-3.156 2.401-5.613 5.607-5.613h8.067c3.149 0 5.662 2.514 5.662 5.664v19.659h-4.808v-1.277c-3.26 1.385-6.942 1.812-9.241 1.812-3.578 0-5.714-2.355-5.714-5.664v-3.792c0-3.312 2.136-5.661 5.714-5.661 2.297 0 5.718.104 9.131 1.229v-5.396h.001zm0 10.787c0-1.225-1.012-1.871-2.238-2.138-1.604-.372-4.011-.424-5.554-.424-1.444 0-2.3.691-2.3 2.245v2.349c0 1.549.856 2.247 2.3 2.247 1.545 0 3.681-.163 5.554-.916 1.227-.476 2.238-1.117 2.238-2.294v-1.069z"/><path fill="#FEF9C4" d="M68.212 135.873c-.328 0-.648-.076-.947-.224l-71.893-36.002c-.713-.357-1.165-1.09-1.165-1.886v-66.838c0-.808.457-1.541 1.183-1.896l71.895-35.184c.58-.286 1.259-.286 1.84-.006l73.096 35.188c.732.35 1.196 1.088 1.196 1.898v67.867c0 .811-.466 1.548-1.199 1.903l-73.097 34.973c-.286.136-.6.207-.909.207zm-69.787-39.412l69.807 34.957 70.966-33.958v-65.215l-70.976-34.165-69.797 34.155v64.226z"/><rect x="90.654" y="77.804" fill="#FEF9C4" width="19.273" height="3.517"/></svg>