<svg version="1" xmlns="http://www.w3.org/2000/svg" width="640.606" height="27.5" viewBox="-6.394 0 640.606 27.5" enable-background="new -6.394 0 640.606 27.5"><g fill="#FEF9C4"><path d="M291.696 8.933h.182c.361.069.418.468.536.874l.514 1.863c.073.273.169.767.318.854.146.083.565.042.854.042h.89c.826 0 1.771-.175 1.865.475v.038c-.039.373-.349.502-.573.655l-1.826 1.235c-.147.094-.295.148-.314.272-.021.1.062.294.114.454l.735 2.148c.087.251.275.628.179.931-.058.176-.256.279-.416.313h-.041c-.34-.049-.565-.293-.793-.475-.561-.459-1.117-.931-1.724-1.434-.109-.087-.282-.229-.374-.234-.137-.006-.294.147-.398.234-.594.505-1.105.947-1.688 1.455-.219.182-.448.48-.812.434-.19-.023-.395-.19-.416-.455-.022-.278.14-.603.218-.853.219-.715.395-1.294.619-2.067.043-.15.13-.301.113-.41-.023-.204-.508-.446-.673-.557-.524-.344-.973-.639-1.469-.972-.228-.156-.527-.277-.593-.615v-.139c.104-.477.546-.436 1.147-.436h1.667c.295 0 .659.036.793-.042.121-.074.226-.524.296-.792.188-.658.291-1.128.457-1.726.126-.437.209-.976.613-1.07zM314.396 8.933h.183c.363.069.419.468.536.874l.516 1.863c.072.273.169.767.315.854.146.083.566.042.854.042h.893c.822 0 1.771-.175 1.862.475v.038c-.04.373-.348.502-.573.655l-1.824 1.235c-.15.094-.298.148-.316.272-.018.1.064.294.117.454l.734 2.148c.087.251.273.628.179.931-.06.176-.256.279-.415.313h-.044c-.34-.049-.565-.293-.793-.475-.561-.459-1.116-.931-1.724-1.434-.107-.087-.283-.229-.374-.234-.137-.006-.292.147-.396.234-.594.505-1.105.947-1.69 1.455-.216.182-.447.48-.81.434-.191-.023-.395-.19-.415-.455-.025-.278.139-.603.214-.853.22-.715.395-1.294.62-2.067.045-.15.132-.301.113-.41-.021-.204-.506-.446-.673-.557-.522-.344-.972-.639-1.467-.972-.229-.156-.526-.277-.592-.615v-.139c.104-.477.545-.436 1.147-.436h1.667c.295 0 .657.036.792-.042.122-.074.224-.524.295-.792l.459-1.726c.122-.437.205-.976.61-1.07zM337.097 8.933h.183c.361.069.419.468.536.874.171.62.327 1.196.517 1.863.07.273.168.767.314.854.145.083.566.042.854.042h.893c.822 0 1.771-.175 1.863.475v.038c-.04.373-.348.502-.576.655l-1.824 1.235c-.151.094-.299.148-.315.272-.021.1.064.294.116.454l.736 2.148c.086.251.272.628.178.931-.062.176-.258.279-.415.313h-.044c-.342-.049-.567-.293-.793-.475-.562-.459-1.117-.931-1.724-1.434-.108-.087-.284-.229-.376-.234-.135-.006-.292.147-.395.234-.596.505-1.105.947-1.689 1.455-.217.182-.45.48-.812.434-.192-.023-.393-.19-.414-.455-.025-.278.139-.603.213-.853.221-.715.395-1.294.619-2.067.049-.15.133-.301.116-.41-.022-.204-.508-.446-.675-.557-.522-.344-.971-.639-1.467-.972-.227-.156-.525-.277-.594-.615v-.139c.105-.477.549-.436 1.148-.436h1.67c.295 0 .656.036.792-.042.121-.074.222-.524.295-.792l.458-1.726c.121-.437.203-.976.612-1.07z"/><rect x="362.975" y="13.179" width="269.935" height="1.663"/><rect x="-5.09" y="13.179" width="269.935" height="1.663"/></g></svg>