<svg xmlns="http://www.w3.org/2000/svg" width="54.486" height="9.987"><path fill-rule="evenodd" clip-rule="evenodd" fill="#EE352A" d="M8.112 3.574h-.874c-.282 0-.696.039-.837-.043-.145-.085-.24-.571-.311-.839l-.505-1.832c-.116-.4-.171-.792-.526-.86h-.178c-.4.094-.48.626-.601 1.055l-.449 1.696c-.071.267-.172.709-.29.78-.133.078-.489.043-.778.043h-1.637c-.589 0-1.023-.043-1.126.427v.137c.064.332.359.451.582.603.486.329.927.618 1.439.958.164.108.639.346.663.547.015.107-.07.255-.114.404-.221.762-.393 1.329-.608 2.033-.074.247-.235.563-.211.838.022.261.22.424.407.448.356.046.584-.247.797-.428.572-.496 1.073-.933 1.656-1.43.1-.085.255-.236.387-.229.091.005.262.144.37.229.595.493 1.14.958 1.691 1.409.223.18.444.418.778.467h.042c.157-.033.35-.136.407-.31.095-.297-.089-.667-.174-.914l-.721-2.113c-.051-.157-.134-.348-.115-.448.018-.12.163-.176.309-.267l1.792-1.215c.223-.149.526-.276.564-.642v-.039c-.09-.64-1.02-.465-1.829-.465zm22.274 0h-.875c-.281 0-.695.039-.836-.043-.146-.085-.241-.571-.312-.839l-.504-1.832c-.116-.4-.172-.792-.527-.86h-.179c-.399.094-.479.626-.6 1.055l-.449 1.696c-.071.267-.171.709-.29.78-.133.078-.489.043-.778.043h-1.636c-.59 0-1.023-.043-1.126.427v.137c.065.332.359.451.583.604.486.329.926.618 1.438.958.163.107.639.346.662.547.015.107-.069.255-.114.404-.221.762-.391 1.328-.607 2.032-.075.247-.236.563-.211.838.021.261.219.424.407.448.356.046.583-.247.796-.428.572-.496 1.073-.933 1.657-1.43.101-.085.256-.236.388-.229.09.005.261.144.369.229.595.493 1.14.958 1.691 1.409.222.18.442.418.777.467h.041c.157-.033.352-.136.408-.31.095-.298-.09-.668-.174-.915l-.723-2.112c-.051-.157-.133-.349-.113-.448.019-.12.162-.176.309-.267l1.792-1.215c.222-.149.524-.276.562-.643v-.038c-.088-.64-1.018-.465-1.826-.465zm22.271 0h-.873c-.281 0-.695.039-.836-.043-.146-.085-.241-.571-.312-.839l-.505-1.832c-.116-.4-.171-.792-.527-.86h-.179c-.398.094-.479.626-.601 1.055l-.449 1.696c-.07.267-.17.709-.289.78-.133.078-.489.043-.778.043h-1.637c-.589 0-1.023-.043-1.126.427v.137c.064.332.359.451.582.604.486.329.926.618 1.439.958.163.107.639.346.662.547.015.107-.07.255-.114.404-.221.762-.392 1.328-.607 2.032-.075.247-.235.563-.21.838.021.261.219.424.406.448.356.046.583-.247.797-.428.572-.496 1.072-.933 1.656-1.43.101-.085.256-.236.389-.229.09.005.262.144.369.229.594.493 1.14.958 1.691 1.409.221.18.441.418.777.467h.041c.156-.033.35-.136.407-.31.095-.298-.089-.668-.175-.915l-.721-2.112c-.051-.157-.133-.349-.114-.448.019-.12.163-.176.31-.267l1.791-1.215c.223-.149.525-.276.563-.643v-.038c-.088-.64-1.016-.465-1.827-.465z"/></svg>